<?xml version="1.0" encoding="UTF-8"?><svg id="Layer_2" xmlns="http://www.w3.org/2000/svg" viewBox="0 0 20 19.07"><defs><style>.cls-1{fill:#fff;}.cls-2{opacity:.8;}</style></defs><g id="Layer_1-2"><g class="cls-2"><path class="cls-1" d="M5.52,5.26c.35,.35,.9,.35,1.25,0l3.75-3.75c.35-.35,.35-.9,0-1.25-.34-.34-.9-.34-1.25,0l-3.75,3.75c-.34,.34-.34,.9,0,1.25h0Z"/><path class="cls-1" d="M13.64,13.38c.34,.35,.9,.35,1.25,0l3.75-3.75c.34-.35,.34-.9,0-1.25-.35-.34-.9-.34-1.25,0l-3.75,3.75c-.35,.34-.35,.9,0,1.25Z"/><path class="cls-1" d="M19.12,17.3h-7.07c-.49,0-.88,.4-.88,.88s.4,.88,.88,.88h7.07c.49,0,.88-.4,.88-.88s-.4-.88-.88-.88Z"/><path class="cls-1" d="M13.01,11.5l3.75-3.75c.34-.35,.34-.9,0-1.25L12.39,2.13c-.35-.35-.9-.35-1.25,0l-3.75,3.75c-.34,.35-.34,.9,0,1.25h0l.62,.62L.52,15.25c-.69,.69-.69,1.81,0,2.5l.63,.62c.69,.69,1.81,.69,2.5,0l7.5-7.5,.62,.62c.34,.34,.9,.34,1.25,0ZM2.39,17.13l-.62-.62,7.5-7.5,.62,.62-7.5,7.5ZM9.26,6.51l2.5-2.5,3.12,3.12-2.5,2.5-3.12-3.12Z"/></g></g></svg>