<?xml version="1.0" encoding="UTF-8"?><svg id="Layer_2" xmlns="http://www.w3.org/2000/svg" viewBox="0 0 20.3 23.1"><defs><style>.cls-1{fill:#fff;opacity:.8;}</style></defs><g id="Layer_1-2"><path class="cls-1" d="M20.3,3.67c0-.37-.23-.74-.6-.83L10.4,.04c-.19-.05-.32-.05-.51,0L.6,2.84c-.37,.14-.6,.46-.6,.83,0,5.48,.14,10.27,1.89,13.67,1.75,3.36,4.6,4.46,7.14,5.39,.23,.14,.51,.23,.78,.32,.09,.05,.23,.05,.32,.05,.14,0,.23,0,.32-.05,.23-.14,.51-.23,.78-.32,2.53-.92,5.39-2.02,7.14-5.39h0c1.75-3.41,1.89-8.19,1.93-13.67Zm-3.45,12.89c-1.43,2.76-3.77,3.64-6.21,4.56-.19,.04-.32,.14-.51,.18-.19-.04-.32-.14-.51-.18-2.44-.92-4.79-1.75-6.21-4.56-1.52-2.95-1.7-7.27-1.7-12.25L10.13,1.78l8.42,2.53c0,4.97-.18,9.3-1.7,12.25Z"/></g></svg>