<?xml version="1.0" encoding="UTF-8"?><svg id="Layer_2" xmlns="http://www.w3.org/2000/svg" viewBox="0 0 25 25"><defs><style>.cls-1{fill:#fff;opacity:.8;}</style></defs><g id="Layer_1-2"><path class="cls-1" d="M12.5,25c-.94,0-1.61-.67-2.15-1.2-.21-.21-.57-.56-.72-.6-.01,0-.04-.01-.1-.01-.22,0-.57,.09-.87,.17-.44,.11-.89,.23-1.36,.23-.4,0-.75-.09-1.05-.27-.79-.45-1.04-1.35-1.24-2.08-.09-.32-.22-.79-.33-.91-.13-.13-.6-.26-.91-.34-.73-.2-1.63-.45-2.08-1.24-.46-.79-.23-1.65-.04-2.41,.08-.3,.21-.79,.16-.97-.04-.16-.39-.51-.6-.72-.54-.55-1.2-1.22-1.2-2.15s.67-1.61,1.2-2.15c.21-.21,.56-.57,.6-.72,.05-.18-.08-.66-.16-.98-.2-.76-.42-1.63,.04-2.41,.45-.79,1.36-1.04,2.08-1.24,.32-.09,.79-.22,.91-.33,.13-.12,.26-.59,.34-.9,.2-.74,.45-1.64,1.24-2.09,.31-.18,.65-.27,1.05-.27,.46,0,.92,.12,1.36,.23,.33,.08,.66,.17,.87,.17h.1c.15-.05,.5-.4,.71-.61,.55-.54,1.22-1.2,2.15-1.2s1.61,.67,2.15,1.2c.21,.21,.57,.56,.72,.6h.1c.23,0,.57-.08,.88-.16,.44-.11,.89-.23,1.36-.23,.4,0,.75,.09,1.06,.27,.79,.45,1.04,1.35,1.24,2.08,.09,.32,.22,.79,.33,.91,.13,.13,.6,.26,.91,.34,.73,.2,1.63,.45,2.08,1.24,.46,.79,.23,1.65,.04,2.41-.08,.32-.21,.8-.16,.97,.04,.16,.39,.51,.6,.72,.54,.55,1.2,1.22,1.2,2.15s-.67,1.61-1.2,2.15c-.21,.21-.56,.57-.6,.72-.05,.18,.08,.66,.16,.97,.2,.76,.42,1.62-.04,2.41-.46,.79-1.35,1.04-2.08,1.24-.32,.09-.79,.22-.91,.34-.13,.13-.26,.62-.34,.91-.2,.73-.45,1.63-1.24,2.08-.31,.18-.65,.27-1.05,.27-.46,0-.92-.12-1.36-.23-.33-.08-.66-.17-.87-.17h-.1c-.15,.05-.5,.4-.71,.61-.55,.54-1.22,1.2-2.15,1.2Zm-2.97-3.77c.22,0,.42,.03,.61,.08,.64,.17,1.14,.66,1.58,1.09,.22,.22,.62,.62,.78,.64,.15-.02,.55-.42,.77-.64,.44-.44,.94-.93,1.59-1.1,.19-.05,.39-.08,.6-.08,.47,0,.95,.12,1.36,.23,.3,.08,.65,.17,.87,.17,.19-.1,.33-.62,.41-.91,.17-.61,.35-1.29,.85-1.78,.48-.48,1.16-.67,1.77-.84,.29-.08,.81-.22,.92-.34,.04-.12-.1-.65-.17-.93-.16-.62-.34-1.31-.15-1.98,.17-.65,.66-1.14,1.09-1.58,.2-.21,.62-.62,.64-.78-.02-.15-.42-.55-.63-.77-.44-.44-.93-.94-1.1-1.59-.18-.66,0-1.36,.16-1.97,.07-.28,.21-.81,.16-.96-.09-.1-.62-.24-.9-.32-.6-.17-1.29-.35-1.78-.85-.48-.48-.67-1.16-.84-1.76-.08-.28-.22-.82-.34-.92-.29,0-.62,.09-.93,.17-.44,.11-.9,.23-1.36,.23-.22,0-.42-.03-.61-.08-.64-.17-1.14-.66-1.58-1.09-.22-.22-.63-.62-.78-.64-.15,.02-.55,.42-.77,.64-.44,.44-.94,.93-1.59,1.1-.19,.05-.38,.08-.6,.08-.46,0-.92-.12-1.35-.23-.31-.08-.66-.17-.88-.17-.19,.1-.33,.62-.41,.91-.17,.61-.35,1.29-.85,1.78-.48,.48-1.16,.67-1.76,.84-.29,.08-.81,.22-.92,.34-.04,.12,.1,.65,.17,.93,.16,.62,.34,1.31,.16,1.98-.17,.65-.66,1.15-1.1,1.59-.21,.22-.61,.62-.63,.78,.02,.15,.42,.55,.63,.77,.44,.45,.93,.94,1.1,1.59,.18,.67,0,1.36-.16,1.97-.07,.28-.21,.81-.16,.95,.09,.1,.62,.24,.9,.32,.61,.17,1.29,.35,1.78,.85,.48,.48,.67,1.16,.84,1.76,.08,.29,.22,.82,.34,.92,.29,0,.61-.09,.93-.17,.42-.11,.89-.23,1.36-.23Zm1.96-4.55l6.97-6.97c.19-.19,.29-.43,.29-.69s-.1-.51-.29-.69c-.18-.19-.43-.29-.69-.29s-.51,.1-.69,.29l-6.28,6.28-2.88-2.88c-.19-.19-.43-.29-.69-.29s-.51,.1-.69,.29c-.38,.38-.38,1,0,1.39l3.57,3.57c.19,.18,.43,.28,.69,.28s.51-.11,.69-.29Z"/></g></svg>