<?xml version="1.0" encoding="UTF-8"?><svg id="Layer_2" xmlns="http://www.w3.org/2000/svg" viewBox="0 0 20 20"><defs><style>.cls-1{fill:#fff;fill-rule:evenodd;opacity:.8;}</style></defs><g id="Layer_1-2"><path class="cls-1" d="M8.79,9.09H.61c-.33,0-.61,.27-.61,.61v.61c0,.33,.27,.61,.61,.61H8.79c.17,0,.3,.13,.3,.3v8.18c0,.33,.27,.61,.61,.61h.61c.33,0,.61-.27,.61-.61V11.21c0-.17,.13-.3,.3-.3h8.18c.33,0,.61-.27,.61-.61v-.61c0-.33-.27-.61-.61-.61H11.21c-.17,0-.3-.13-.3-.3V.61c0-.33-.27-.61-.61-.61h-.61c-.33,0-.61,.27-.61,.61V8.79c0,.17-.13,.3-.3,.3Z"/></g></svg>